HIERARCHY
ROOT SpineBase
{
  OFFSET 0.000000 0.000000 0.000000
  CHANNELS 6 Xposition Yposition Zposition Zrotation Xrotation Yrotation
  JOINT SpineMid
  {
    OFFSET 0.000000 27.068081 0.000000
    CHANNELS 3 Zrotation Xrotation Yrotation
    JOINT SpineShoulder
    {
      OFFSET -0.226814 20.306974 -0.612901
      CHANNELS 3 Zrotation Xrotation Yrotation
      JOINT Neck
      {
        OFFSET -0.188988 6.756835 -0.468434
        CHANNELS 3 Zrotation Xrotation Yrotation
        JOINT Head
        {
          OFFSET -1.681303 10.472592 3.849234
          CHANNELS 3 Zrotation Xrotation Yrotation
          End Site
          {
            OFFSET 0 0 0
          }
        }
      }
      JOINT ShoulderLeft
      {
        OFFSET -3.766681 -7.153353 12.867654
        CHANNELS 3 Zrotation Xrotation Yrotation
        JOINT ElbowLeft
        {
          OFFSET -0.286340 -26.915522 0.688430
          CHANNELS 3 Zrotation Xrotation Yrotation
          JOINT WristLeft
          {
            OFFSET -6.796121 -20.713207 -1.445560
            CHANNELS 3 Zrotation Xrotation Yrotation
            JOINT HandLeft
            {
              OFFSET 0.034011 -1.707742 0.721078
              CHANNELS 3 Zrotation Xrotation Yrotation
              JOINT HandTipLeft
              {
                OFFSET 0.046950 -1.637171 0.417977
                CHANNELS 3 Zrotation Xrotation Yrotation
                End Site
                {
                  OFFSET 0 0 0
                }
              }
              JOINT ThumbLeft
              {
                OFFSET -3.545757 1.810796 -2.432251
                CHANNELS 3 Zrotation Xrotation Yrotation
                End Site
                {
                  OFFSET 0 0 0
                }
              }
            }
          }
        }
      }
      JOINT ShoulderRight
      {
        OFFSET 0.480022 -2.641278 -10.065837
        CHANNELS 3 Zrotation Xrotation Yrotation
        JOINT ElbowRight
        {
          OFFSET -10.681437 -20.645088 -3.866630
          CHANNELS 3 Zrotation Xrotation Yrotation
          JOINT WristRight
          {
            OFFSET -4.465703 -19.332984 7.276997
            CHANNELS 3 Zrotation Xrotation Yrotation
            JOINT HandRight
            {
              OFFSET 3.620041 -4.323474 4.362208
              CHANNELS 3 Zrotation Xrotation Yrotation
              JOINT HandTipRight
              {
                OFFSET -0.809132 -6.096964 0.641104
                CHANNELS 3 Zrotation Xrotation Yrotation
                End Site
                {
                  OFFSET 0 0 0
                }
              }
              JOINT ThumbRight
              {
                OFFSET 1.092583 -2.999346 -7.257814
                CHANNELS 3 Zrotation Xrotation Yrotation
                End Site
                {
                  OFFSET 0 0 0
                }
              }
            }
          }
        }
      }
    }
  }
  JOINT HipLeft
  {
    OFFSET -2.219668 0.632698 -0.928065
    CHANNELS 3 Zrotation Xrotation Yrotation
    JOINT KneeLeft
    {
      OFFSET 16.753670 -35.277906 1.875497
      CHANNELS 3 Zrotation Xrotation Yrotation
      JOINT AnkleLeft
      {
        OFFSET -6.813567 -29.861040 -9.685461
        CHANNELS 3 Zrotation Xrotation Yrotation
        JOINT FootLeft
        {
          OFFSET 1.529889 -4.762929 1.872854
          CHANNELS 3 Zrotation Xrotation Yrotation
          End Site
          {
            OFFSET 0 0 0
          }
        }
      }
    }
  }
  JOINT HipRight
  {
    OFFSET -0.322015 1.544734 -4.515288
    CHANNELS 3 Zrotation Xrotation Yrotation
    JOINT KneeRight
    {
      OFFSET 2.795934 -36.886354 -2.755622
      CHANNELS 3 Zrotation Xrotation Yrotation
      JOINT AnkleRight
      {
        OFFSET 6.132082 -26.763547 -2.316236
        CHANNELS 3 Zrotation Xrotation Yrotation
        JOINT FootRight
        {
          OFFSET -8.976982 -3.803132 -3.558691
          CHANNELS 3 Zrotation Xrotation Yrotation
          End Site
          {
            OFFSET 0 0 0
          }
        }
      }
    }
  }
}
MOTION
Frames: 6
Frame Time: 0.033333
135.652703 71.875326 291.706040 -0.778396 0.119613 65.327358 0.216255 -0.757260 -65.325116 -0.000000 0.000000 0.000000 -1.654878 -0.274135 0.562121 0.000000 0.000000 0.000000 -0.000000 0.000000 0.000000 -4.168047 0.371286 0.180507 -10.352468 19.307228 -3.789390 10.205777 14.616621 9.150176 0.000000 0.000000 0.000000 0.000000 0.000000 0.000000 -0.000000 0.000000 0.000000 -1.703555 -3.204187 0.050695 2.281286 4.200031 1.234432 6.132736 -5.361901 0.234419 0.000000 0.000000 0.000000 0.000000 0.000000 0.000000 0.216255 -0.757260 -65.325116 1.158207 -1.107078 -0.112484 -76.173225 37.273124 13.127233 0.000000 0.000000 0.000000 0.603683 -2.825526 -65.504096 -3.310298 1.743497 0.619767 32.050056 -13.291949 9.541458 0.000000 0.000000 0.000000
135.667771 72.278662 291.675444 -0.647023 0.185312 66.578208 0.087158 -0.667370 -66.576654 -0.000000 0.000000 0.000000 -1.661615 -0.220268 0.573955 0.000000 0.000000 0.000000 -0.000000 0.000000 0.000000 -4.463331 0.681751 0.113037 -10.277314 18.954691 -3.841527 16.086020 18.925044 11.448784 0.000000 0.000000 0.000000 0.000000 0.000000 0.000000 -0.000000 0.000000 0.000000 -3.139846 -3.363611 -0.488680 6.028030 2.558001 2.319750 5.902095 -0.158302 -1.162832 0.000000 0.000000 0.000000 0.000000 0.000000 0.000000 0.087158 -0.667370 -66.576654 1.282512 -1.134845 -0.145184 -72.032434 36.718790 12.285205 0.000000 0.000000 0.000000 0.156867 -3.175631 -66.818870 -4.062100 2.544626 0.839242 28.844982 -12.617345 8.166535 0.000000 0.000000 0.000000
135.703549 72.732173 291.668400 -0.497080 0.228106 67.648823 -0.021933 -0.546478 -67.647938 -0.000000 0.000000 0.000000 -1.710594 0.020277 0.633810 0.000000 0.000000 0.000000 -0.000000 0.000000 0.000000 -4.644164 1.017131 0.031365 -8.871282 12.288740 -4.302122 20.708835 24.683319 10.664359 0.000000 0.000000 0.000000 0.000000 0.000000 0.000000 -0.000000 0.000000 0.000000 -4.639577 -2.847609 -1.182613 8.842605 0.370494 2.775778 7.270899 4.283241 -1.604182 0.000000 0.000000 0.000000 0.000000 0.000000 0.000000 -0.021933 -0.546478 -67.647938 1.484395 -1.088832 -0.220263 -61.959039 33.989405 8.685611 0.000000 0.000000 0.000000 -0.220966 -2.860903 -67.888647 -3.624536 2.598560 0.793583 26.476028 -11.809900 7.099437 0.000000 0.000000 0.000000
135.712120 73.115157 291.667717 -0.342154 0.254588 68.083110 -0.108474 -0.412453 -68.082740 -0.000000 0.000000 0.000000 -1.821215 0.174078 0.701553 0.000000 0.000000 0.000000 -0.000000 0.000000 0.000000 -4.698776 1.329116 -0.052717 -6.401955 6.843142 -3.967953 21.123045 28.748955 8.184124 0.000000 0.000000 0.000000 0.000000 0.000000 0.000000 -0.207508 0.813244 -0.379568 -4.523968 -4.138086 -0.827635 9.363599 0.960323 3.149043 8.767843 3.991504 -1.975799 0.000000 0.000000 0.000000 0.000000 0.000000 0.000000 0.314428 0.230690 -67.804475 1.968877 -1.527352 -0.544323 -46.424868 27.356562 3.041627 0.000000 0.000000 0.000000 -0.492214 -2.560314 -68.318521 -3.266563 2.601442 0.747116 23.787558 -10.835671 6.001999 0.000000 0.000000 0.000000
135.670079 73.482285 291.681485 -0.260560 0.240696 74.804937 -0.163987 -0.314538 -74.804840 -0.000000 0.000000 0.000000 -1.893048 0.332174 0.755864 0.000000 0.000000 0.000000 0.321756 -0.964870 0.021200 -7.171194 7.239876 -1.081470 -1.103833 1.315789 -1.688601 28.224021 26.794798 7.283795 0.000000 0.000000 0.000000 0.000000 0.000000 0.000000 -0.604104 1.072401 -0.434115 -3.772838 -5.127843 -0.502291 9.707628 0.916962 2.837934 9.929126 9.896885 -3.535990 0.000000 0.000000 0.000000 0.000000 0.000000 0.000000 0.374689 0.989648 -74.456432 2.969063 -1.780160 -0.700923 -29.443215 16.496312 -1.416220 0.000000 0.000000 0.000000 -0.708238 -2.205917 -75.019816 -2.606536 2.074545 0.566014 23.371494 -11.452807 11.875618 0.000000 0.000000 0.000000
135.570091 73.626154 291.705946 -0.262882 0.210580 73.319664 -0.126263 -0.312264 -73.319525 -0.000000 0.000000 0.000000 -1.934381 0.467134 0.794888 0.000000 0.000000 0.000000 -0.000000 0.000000 0.000000 -5.970000 5.485942 -1.076002 -0.767541 -7.868560 -2.074916 30.589074 28.367726 3.280023 0.000000 0.000000 0.000000 0.000000 0.000000 0.000000 -0.683699 0.753018 -0.255954 -2.882629 -5.380271 -0.200714 9.551594 -0.201215 1.734333 8.453663 14.271851 -3.867677 0.000000 0.000000 0.000000 0.000000 0.000000 0.000000 0.412615 0.905052 -72.963347 3.276473 -2.027123 -0.775321 -26.981062 10.830895 -3.951391 0.000000 0.000000 0.000000 -0.620108 -2.149561 -73.526783 -2.324686 1.961689 0.511747 28.988509 -12.767473 12.762283 0.000000 0.000000 0.000000
